<svg xmlns="http://www.w3.org/2000/svg" width="264.623" height="74.343" viewBox="0 0 264.623 74.343">
  <g id="Group_5" data-name="Group 5" transform="translate(-60.462 -368.829)">
    <g id="Group_1" data-name="Group 1" transform="translate(67.415 426.92) rotate(-76)">
      <g id="g4" transform="translate(0 -6.974)">
        <path id="path1" d="M29.012,14.7C18.048,14.7,9.16,31.124,9.16,51.388s8.888,36.691,19.852,36.691S48.864,71.652,48.864,51.388,39.976,14.7,29.012,14.7Zm0,5.823c9.224,0,16.7,13.82,16.7,30.868s-7.477,30.868-16.7,30.868-16.7-13.82-16.7-30.868,7.478-30.868,16.7-30.868Z" transform="translate(-9.16 -14.697)" fill="#fff" stroke="#fff" stroke-width="0.307"/>
        <path id="path2" d="M75.41,14.7c-10.964,0-19.852,16.427-19.852,36.691S64.446,88.079,75.41,88.079,95.262,71.652,95.262,51.388,86.374,14.7,75.41,14.7Zm0,5.823c9.224,0,16.7,13.82,16.7,30.868s-7.477,30.868-16.7,30.868-16.7-13.82-16.7-30.868S66.186,20.52,75.41,20.52Z" transform="translate(-37.323 -14.697)" fill="#fff" stroke="#fff" stroke-width="0.307"/>
        <path id="path3" d="M55.359,54.328c-12.638,0-22.883,16.427-22.883,36.691S42.721,127.71,55.359,127.71s22.882-16.427,22.882-36.691S68,54.328,55.359,54.328Zm0,5.823c10.632,0,19.251,13.82,19.251,30.868s-8.619,30.868-19.251,30.868-19.251-13.82-19.251-30.868,8.619-30.868,19.251-30.868Z" transform="translate(-26.358 -54.328)" fill="#fff" stroke="#fff" stroke-width="0.307"/>
        <path id="path4" d="M55.241,34.512c-9.565,0-17.32,13.958-17.32,31.175s7.754,31.175,17.32,31.175S72.561,82.905,72.561,65.688,64.806,34.512,55.241,34.512Zm0,4.948c8.047,0,14.571,11.742,14.571,26.228S63.288,91.915,55.241,91.915,40.67,80.173,40.67,65.688,47.194,39.46,55.241,39.46Z" transform="translate(-26.271 -28.997)" fill="#fff" stroke="#fff" stroke-width="0.307"/>
      </g>
    </g>
    <text id="text5" transform="translate(145.867 423)" fill="#fff" stroke="#fff" stroke-width="0.218" font-size="43" font-family="CenturyGothic-BoldItalic, Century Gothic" font-weight="700" font-style="italic"><tspan x="0" y="0">PayPoint</tspan></text>
  </g>
</svg>
